<?xml version="1.0" standalone="no"?>
<!DOCTYPE svg PUBLIC "-//W3C//DTD SVG 20010904//EN"
 "http://www.w3.org/TR/2001/REC-SVG-20010904/DTD/svg10.dtd">
<svg version="1.0" xmlns="http://www.w3.org/2000/svg"
 width="1280.000000pt" height="1280.000000pt" viewBox="0 0 1280.000000 1280.000000"
 preserveAspectRatio="xMidYMid meet">

<g transform="translate(0.000000,1280.000000) scale(0.100000,-0.100000)"
fill="#000000" stroke="none">
<path d="M6427 10610 c-148 -38 -252 -154 -280 -314 -17 -104 1 -154 212 -570
104 -204 282 -555 396 -781 114 -225 260 -513 325 -640 64 -126 215 -423 335
-660 394 -777 380 -754 462 -802 55 -32 162 -63 219 -63 53 0 144 32 206 71
136 88 188 242 142 423 -14 55 -230 491 -756 1526 -75 146 -247 486 -383 755
-456 903 -465 918 -532 975 -70 57 -134 82 -225 86 -46 2 -100 -1 -121 -6z"/>
<path d="M5473 9726 c-89 -29 -163 -95 -210 -186 -22 -44 -27 -68 -27 -120 l0
-65 616 -1231 c669 -1336 635 -1275 745 -1324 26 -12 84 -28 127 -37 72 -14
84 -13 140 2 174 49 286 159 286 283 0 16 -9 60 -21 97 -22 71 -1192 2415
-1229 2462 -30 39 -88 79 -150 104 -69 27 -215 35 -277 15z"/>
<path d="M8084 6003 c-310 -3 -353 -5 -358 -19 -9 -24 45 -85 132 -150 42 -32
98 -73 124 -92 25 -19 56 -47 67 -63 30 -40 120 -190 171 -284 68 -126 270
-486 299 -532 14 -24 50 -80 80 -125 80 -123 155 -289 186 -408 21 -82 28
-138 32 -255 12 -356 -39 -479 -226 -535 -44 -14 -78 -32 -96 -50 l-28 -29 33
-19 c46 -29 183 -35 656 -30 l399 4 42 24 c24 14 43 28 43 31 0 14 -82 59
-125 69 -95 21 -164 89 -184 180 -11 52 -31 388 -31 536 0 63 5 117 14 142 20
57 438 772 591 1012 12 19 48 76 80 125 73 115 105 148 243 252 62 47 126 102
143 122 l30 36 -33 28 c-31 26 -36 27 -168 29 -74 2 -227 1 -340 -1 -177 -3
-210 -6 -242 -22 -21 -11 -38 -23 -38 -28 0 -20 76 -70 122 -81 31 -8 62 -25
85 -46 32 -30 35 -38 30 -71 -8 -51 -78 -184 -312 -593 -283 -494 -316 -550
-325 -550 -5 0 -38 57 -74 128 -36 70 -106 206 -156 302 -200 385 -340 671
-340 694 0 31 58 117 90 133 14 7 42 13 63 13 58 0 101 58 65 88 -39 31 -232
40 -744 35z"/>
<path d="M3018 5978 l-37 -21 30 -38 c23 -29 43 -41 97 -58 83 -25 129 -55
156 -101 21 -35 21 -47 24 -1028 1 -668 -1 -1006 -8 -1032 -20 -75 -76 -120
-188 -154 -49 -14 -132 -68 -132 -85 0 -4 17 -16 38 -27 35 -18 64 -19 562
-21 289 0 550 -4 581 -8 42 -6 63 -3 87 9 26 13 51 51 40 60 -11 10 -193 67
-242 77 -82 15 -135 41 -174 82 -47 49 -51 96 -52 563 0 364 1 392 18 399 9 4
76 9 147 12 146 6 215 -6 297 -52 84 -47 163 -151 219 -288 13 -34 35 -67 51
-78 l27 -20 25 38 26 38 0 443 c0 425 -1 444 -20 482 -20 40 -21 40 -46 24
-31 -21 -47 -51 -69 -129 -36 -127 -95 -192 -202 -224 -53 -16 -443 -81 -484
-81 -5 0 -9 212 -9 485 l0 485 37 41 c21 23 49 45 63 51 33 12 466 12 597 -1
262 -26 383 -129 448 -381 28 -108 60 -149 105 -135 19 6 20 17 20 313 0 337
0 336 -60 367 -25 13 -156 15 -982 15 l-953 0 -37 -22z"/>
<path d="M5517 5974 c-19 -19 -24 -31 -18 -43 15 -27 45 -50 86 -65 140 -50
196 -99 214 -188 8 -38 11 -330 9 -999 -3 -884 -4 -947 -21 -984 -33 -74 -92
-115 -209 -150 -44 -12 -66 -27 -102 -65 -25 -27 -46 -52 -46 -55 0 -3 528 -5
1174 -5 l1174 0 6 93 c3 50 12 202 21 337 19 308 19 292 -7 309 -21 13 -25 11
-65 -35 -24 -26 -48 -64 -54 -84 -55 -178 -137 -296 -263 -374 -102 -64 -318
-93 -616 -83 -356 13 -471 95 -501 359 -6 52 -9 420 -7 915 3 793 4 830 22
867 25 49 74 84 167 120 105 39 119 47 143 79 l21 29 -28 24 -28 24 -523 0
-523 0 -26 -26z"/>
<path d="M3625 2730 c-27 -11 -61 -50 -68 -78 -3 -12 -1 -38 4 -58 13 -44 49
-67 140 -89 87 -22 119 -45 119 -89 0 -64 -61 -104 -139 -91 -41 7 -87 46 -93
80 -2 11 -11 21 -21 23 -25 5 -23 -48 4 -82 31 -39 71 -56 134 -56 97 0 155
48 155 127 0 66 -33 94 -142 123 -96 25 -121 44 -121 91 0 44 32 71 90 76 59
5 93 -11 113 -54 15 -32 50 -46 50 -19 0 22 -44 80 -70 93 -28 14 -124 16
-155 3z"/>
<path d="M5360 2721 c-19 -10 -48 -37 -65 -60 -29 -41 -30 -47 -30 -145 0 -97
2 -105 29 -144 75 -108 251 -110 323 -3 81 120 42 308 -74 357 -47 20 -141 18
-183 -5z m188 -38 c38 -27 65 -88 70 -155 6 -85 -29 -157 -92 -188 -76 -36
-147 -18 -199 52 -25 33 -35 158 -18 211 13 38 53 84 86 98 33 15 123 4 153
-18z"/>
<path d="M7674 2726 c-64 -28 -114 -119 -114 -209 0 -47 26 -129 51 -161 31
-40 90 -66 149 -66 125 0 204 90 203 230 -2 142 -73 220 -200 220 -32 -1 -72
-7 -89 -14z m166 -35 c101 -54 113 -256 20 -334 -60 -51 -157 -44 -211 14 -56
60 -62 209 -11 279 42 57 136 77 202 41z"/>
<path d="M9128 2724 c-15 -8 -35 -28 -43 -44 -40 -78 5 -148 110 -170 81 -17
122 -38 135 -71 33 -78 -70 -144 -164 -105 -28 12 -41 25 -53 56 -11 27 -22
40 -35 40 -17 0 -19 -5 -13 -32 4 -18 13 -42 20 -54 45 -71 223 -72 269 -2 46
70 23 144 -54 177 -27 12 -55 21 -62 21 -61 0 -128 45 -128 85 0 93 170 116
206 28 8 -18 21 -33 29 -33 35 0 1 81 -45 105 -37 19 -136 19 -172 -1z"/>
<path d="M2460 2515 c0 -207 1 -215 20 -215 18 0 20 8 22 103 l3 102 108 3
c85 2 107 6 107 17 0 11 -22 15 -107 17 l-108 3 -3 78 -3 77 121 0 c100 0 120
2 120 15 0 13 -22 15 -140 15 l-140 0 0 -215z"/>
<path d="M2880 2515 c0 -208 1 -215 20 -215 19 0 20 7 20 215 0 208 -1 215
-20 215 -19 0 -20 -7 -20 -215z"/>
<path d="M3100 2516 c0 -209 1 -216 20 -216 19 0 20 7 20 100 l0 100 85 0 c78
0 88 -2 110 -25 18 -17 25 -35 25 -62 0 -21 3 -55 6 -75 5 -31 11 -38 29 -38
21 0 22 3 14 38 -5 20 -9 54 -9 75 0 39 -14 76 -34 89 -7 5 0 18 18 37 24 25
28 38 28 81 0 43 -4 57 -26 79 -25 25 -31 26 -156 29 l-130 4 0 -216z m229
173 c34 -12 44 -36 39 -90 -4 -49 -49 -69 -150 -69 l-78 0 0 85 0 85 79 0 c43
0 92 -5 110 -11z"/>
<path d="M3960 2715 c0 -12 14 -15 70 -15 l70 0 0 -200 c0 -193 1 -200 20
-200 19 0 20 7 20 200 l0 200 70 0 c56 0 70 3 70 15 0 13 -24 15 -160 15 -136
0 -160 -2 -160 -15z"/>
<path d="M4870 2515 l0 -215 135 0 c112 0 135 3 135 15 0 12 -22 15 -112 17
l-113 3 -3 198 c-2 189 -3 197 -22 197 -19 0 -20 -7 -20 -215z"/>
<path d="M5775 2713 c12 -27 116 -322 130 -368 9 -32 18 -41 38 -43 24 -3 27
2 45 60 11 35 43 129 71 209 28 81 51 150 51 153 0 3 -9 6 -19 6 -20 0 -21 -2
-113 -279 -23 -71 -33 -89 -40 -77 -5 9 -35 91 -66 184 -51 148 -60 167 -81
170 -20 3 -22 1 -16 -15z"/>
<path d="M6240 2515 l0 -215 145 0 c122 0 145 2 145 15 0 13 -21 15 -125 15
l-125 0 0 90 0 90 115 0 c96 0 115 3 115 15 0 12 -19 15 -115 15 l-115 0 0 80
0 80 125 0 c104 0 125 2 125 15 0 13 -23 15 -145 15 l-145 0 0 -215z"/>
<path d="M7110 2725 c0 -3 34 -59 75 -124 l75 -118 0 -91 c0 -85 1 -92 20 -92
19 0 20 7 20 98 l0 97 66 100 c92 141 89 135 62 135 -19 0 -36 -20 -83 -96
-32 -52 -62 -97 -66 -100 -4 -2 -34 41 -66 95 -46 79 -63 100 -80 101 -13 0
-23 -2 -23 -5z"/>
<path d="M8112 2562 c5 -193 15 -224 87 -257 52 -23 150 -17 189 12 50 37 57
64 60 246 3 163 3 167 -17 167 -20 0 -21 -5 -22 -152 0 -91 -5 -167 -12 -188
-17 -48 -65 -73 -132 -66 -96 11 -113 53 -114 284 -1 118 -2 122 -22 122 -21
0 -22 -2 -17 -168z"/>
<path d="M8620 2525 c0 -113 -1 -208 -2 -212 -2 -5 7 -9 20 -11 22 -3 22 -1
22 97 l0 101 75 0 c41 0 86 -5 99 -12 28 -12 46 -58 46 -120 0 -48 8 -68 29
-68 15 0 17 9 13 63 -4 73 -17 121 -37 137 -13 10 -10 17 15 40 25 23 30 36
30 75 0 96 -33 115 -195 115 l-115 0 0 -205z m249 151 c14 -13 21 -31 21 -57
0 -66 -41 -89 -156 -89 l-74 0 0 86 0 86 94 -4 c75 -2 98 -7 115 -22z"/>
<path d="M9520 2515 l0 -215 145 0 c122 0 145 2 145 15 0 13 -21 15 -125 15
l-125 0 0 90 0 90 110 0 c91 0 110 3 110 15 0 12 -19 15 -110 15 l-110 0 0 80
0 80 125 0 c104 0 125 2 125 15 0 13 -23 15 -145 15 l-145 0 0 -215z"/>
<path d="M9950 2515 l0 -215 140 0 c116 0 140 2 140 15 0 12 -22 15 -117 17
l-118 3 -3 198 c-2 189 -3 197 -22 197 -19 0 -20 -7 -20 -215z"/>
<path d="M10350 2515 c0 -208 1 -215 20 -215 19 0 20 7 20 105 l0 105 110 0
c91 0 110 3 110 15 0 12 -19 15 -110 15 l-110 0 0 80 0 80 120 0 c100 0 120 3
120 15 0 13 -22 15 -140 15 l-140 0 0 -215z"/>
</g>
</svg>
